PathFileType	4	(X/Y/Z)	Patient4_TMGait_0pt6_02_left_26.trc.trc
DataRate	CameraRate	NumFrames	NumMarkers	Units	OrigDataRate	OrigDataStartFrame	OrigNumFrames
81.871345029240	81.871345029240	4	33	mm	81.871345029240	1	       141
Frame#	Time	Sacral			L.Shoulder			Chest			R.Shoulder			Neck			R.ASIS			L.ASIS			R.Thigh.Superior			R.Thigh.Lateral			R.Thigh.Inferior			R.Patella			L.Thigh.Superior			L.Thigh.Lateral			L.Thigh.Inferior			L.Patella			L.Shank.Superior			L.Shank.Lateral			L.Shank.Inferior			R.Shank.Superior			R.Shank.Lateral			R.Shank.Inferior			R.Heel			R.Midfoot.Superior			R.Midfoot.Lateral			R.Toe			L.Heel			L.Midfoot.Lateral			L.Midfoot.Superior			L.Toe			L.Elbow			L.Wrist			R.Elbow			R.Wrist			
		X1	Y1	Z1	X2	Y2	Z2	X3	Y3	Z3	X4	Y4	Z4	X5	Y5	Z5	X6	Y6	Z6	X7	Y7	Z7	X8	Y8	Z8	X9	Y9	Z9	X10	Y10	Z10	X11	Y11	Z11	X12	Y12	Z12	X13	Y13	Z13	X14	Y14	Z14	X15	Y15	Z15	X16	Y16	Z16	X17	Y17	Z17	X18	Y18	Z18	X19	Y19	Z19	X20	Y20	Z20	X21	Y21	Z21	X22	Y22	Z22	X23	Y23	Z23	X24	Y24	Z24	X25	Y25	Z25	X26	Y26	Z26	X27	Y27	Z27	X28	Y28	Z28	X29	Y29	Z29	X30	Y30	Z30	X31	Y31	Z31	X32	Y32	Z32	X33	Y33	Z33	

1	31.810000000000	863.156129752394	1010.185585066869	499.999513145940	1041.860770414002	1437.925293195773	318.978503427518	1155.347840873280	1361.094611919646	467.960098563444	1090.488818396879	1437.702942961411	647.828464850294	1058.328115747861	1494.416849113722	470.111255336062	1094.727517453195	947.467221954618	606.095412095122	1067.814007502504	960.757971487144	332.759982575057	1128.032214321709	745.155937321076	580.623736369149	1044.529838077949	635.986709123049	636.865928112584	1123.057783244638	585.488913265740	558.221432249020	1120.971810009212	498.025405895374	563.389218084452	1152.365943041573	790.853610820461	346.390495052795	1106.544993037931	663.006990146588	265.828864958216	1221.222550227715	607.127324330048	309.726956172617	1242.026124509500	522.188110030127	297.511346147762	1191.489174121944	446.952236299569	297.901222791284	1060.575054006797	367.773509967081	268.638880024995	1093.967299145125	239.155705479321	318.530849493459	1095.772270691344	408.275050703992	565.214918152881	1022.316059366160	300.772235783033	617.605376301107	1072.190684000664	209.731410235077	553.707538955660	943.178515605721	42.817931636999	508.040617939612	1115.968503839851	98.791382990666	550.104610213923	1025.580093281489	36.457066189191	584.589251240981	1233.742913466681	45.778739479624	576.430919271602	939.390152655555	117.388613565616	382.296596349175	991.776652329214	96.651464832179	289.352081319864	1091.607556508068	136.805933690268	294.714428897612	1193.187797696613	57.773453658517	242.262943637736	940.960302553411	1095.194495273679	214.156940812487	992.806483203846	837.947350785204	210.822514356979	1099.981029453420	1095.239602345364	779.038690514263	1322.548045450854	968.204355308708	750.973900290412	
2	31.822214285714	861.815458765453	1010.100957074631	500.289139382134	1040.386766877801	1438.597476810335	320.456729162851	1154.218194325712	1360.811826101488	468.707037082463	1090.027341424892	1436.657751291040	649.147302718292	1057.562191598120	1494.325148982109	471.816502790187	1093.218574623843	947.155442246947	605.506160901618	1065.888068167733	960.866422885946	332.202207774110	1124.506416114235	744.488831668333	579.649495290435	1040.162707890091	635.900960679488	636.573662765037	1117.816729304794	584.712150153351	557.836274295525	1115.020919700952	497.421962239055	563.206595206332	1149.963185783567	791.288844885321	345.650651531278	1104.796623976796	663.217255103145	264.991842511729	1219.260267141936	607.862290972819	309.677074780477	1241.461014277901	525.023092584464	297.170164328077	1194.904821560996	449.351554035891	296.714038340104	1070.155522823046	363.180778203591	265.820630129717	1111.297548914151	236.973032952530	314.633289271006	1089.210773801054	407.729900799612	565.034808581023	1015.006712020779	300.655242656839	617.170846204708	1064.716391208006	209.358618780702	553.535459168782	935.404915753173	42.534525710447	508.034202256275	1108.070920496215	98.726301135852	549.963443615498	1017.705192783689	36.431978625254	584.526131227678	1225.875917260012	45.841494259326	576.471262207945	965.467604357877	106.039670529277	376.420199998507	1019.075213127411	89.436904068584	283.616549798116	1115.685087881569	135.233441830403	289.846463331829	1221.479806976315	63.218249352322	237.466070745792	933.597249218402	1098.374172451161	214.485402290587	977.335423388075	840.096485911006	210.310536455122	1103.750698792076	1094.732224548579	780.394424119020	1331.208318439365	981.683446149831	749.025245096446	
3	31.834428571429	860.459577245856	1010.045710374635	500.528253089038	1038.970671524162	1439.246386172293	321.856354313525	1153.106842750099	1360.537559456668	469.420500857606	1089.536698517650	1435.647285725871	650.401472899403	1056.803598851900	1494.234206906167	473.441613380174	1091.707413396165	946.852038120923	604.936758562891	1064.000200098939	960.976101149819	331.655542244584	1121.046909800700	743.829397191456	578.735605361086	1035.864468932512	635.813156361648	636.279195010393	1112.674675099514	583.948753142419	557.462287718075	1109.172393706200	496.818889547901	563.014744011487	1147.522642307026	791.622607254997	344.964836429241	1102.927711770957	663.355346166268	264.159286506488	1217.177563863786	608.487942954042	309.651438722825	1240.758877251847	527.757213862916	296.918788905396	1198.159712740062	451.732004082613	295.606330292084	1079.640299098175	358.736745638763	262.968597867484	1128.363955181919	235.014058551444	310.796513141873	1082.763103903285	407.194864204989	564.850138294792	1007.813250093923	300.548498651911	616.747254210214	1057.338804885381	208.994057302171	553.366290803469	927.708956345779	42.265772060281	508.024056837180	1100.252185852346	98.659295228736	549.821935637361	1009.914436285582	36.407358072071	584.465904716093	1218.090962692577	45.897297709757	576.508858456054	991.237915401811	95.143008946209	370.463530104318	1046.141865888020	82.622501950897	277.898218243448	1139.483499116157	133.946225016141	285.098881609146	1249.426653242849	68.896602067206	232.999307940321	926.422044545547	1101.510730634670	214.772743378899	962.157281779248	842.265538682809	209.835235969985	1107.465589690490	1094.263604582172	781.641847670350	1339.575410491296	995.017965120408	747.015177368648	
4	31.846642857143	859.075318484757	1010.042390829414	500.667537248056	1037.656347826603	1439.847395287447	323.094013996374	1152.024966807291	1360.278682811471	470.057266528967	1088.988537903927	1434.708222950631	651.518385719056	1056.052718486288	1494.144875962704	474.898933620791	1090.189270441629	946.562278509936	604.400289962973	1062.179704938411	961.086642408135	331.120294647792	1117.691334949972	743.180641845097	577.919079270807	1031.667808245123	635.723218761519	635.971109225728	1107.686674691328	583.207410851780	557.102031740713	1103.478138396142	496.215752176897	562.799344254567	1145.028228159433	791.787403017329	344.369482470323	1100.866311532282	663.370543330443	263.338221729304	1214.906086919758	608.931777281380	309.658070328070	1239.833027744367	530.312350668027	296.813210615739	1201.122059873924	454.071740519977	294.642023070775	1088.900312950386	354.587139365208	260.100485314116	1144.867866974191	233.470343510170	307.109001836485	1076.490366291892	406.679929707478	564.652631577524	1000.796758434431	300.463974281128	616.340489088678	1050.101445730720	208.645882887359	553.199254009958	920.115507898454	42.025806959140	508.007173703322	1092.531705784202	98.577653579868	549.662161843966	1002.237868402935	36.384278940262	584.410657890505	1210.416982069123	45.941635330557	576.541019160445	1016.320227268173	85.128571041597	364.461514615442	1072.625865440250	76.560117214587	272.288867862198	1162.644247623409	133.172427982388	280.608588430570	1276.583538978789	74.942990274052	229.131355717729	919.602748484785	1104.554548285088	214.977117135936	947.531190422721	844.463959568560	209.419830626862	1111.056783255265	1093.873302329442	782.669816081516	1347.346332524577	1008.090003988278	744.853962922884	
